<?xml version="1.0" standalone="no"?>
<!DOCTYPE svg PUBLIC "-//W3C//DTD SVG 20010904//EN"
 "http://www.w3.org/TR/2001/REC-SVG-20010904/DTD/svg10.dtd">
<svg version="1.0" xmlns="http://www.w3.org/2000/svg"
 width="409.000000pt" height="234.000000pt" viewBox="0 0 409.000000 234.000000"
 preserveAspectRatio="xMidYMid meet">

<g transform="translate(0.000000,234.000000) scale(0.100000,-0.100000)"
fill="#000000" stroke="none">
<path d="M3736 2255 c-22 -33 -21 -37 15 -71 88 -82 157 -209 183 -337 20 -95
20 -147 1 -245 -24 -118 -83 -230 -172 -323 l-74 -78 16 -30 c8 -17 19 -31 24
-31 20 0 155 148 192 211 165 277 129 624 -88 859 -36 38 -68 70 -73 70 -4 0
-15 -11 -24 -25z"/>
<path d="M3657 2083 c-2 -4 -8 -22 -12 -40 -5 -26 -1 -41 24 -77 55 -80 74
-141 75 -246 1 -112 -16 -170 -75 -259 -35 -53 -39 -64 -33 -100 4 -23 10 -41
15 -41 18 0 110 129 134 188 61 151 56 292 -15 437 -37 76 -102 156 -113 138z"/>
<path d="M130 940 l0 -910 125 0 125 0 2 558 c3 529 4 555 19 512 42 -115 99
-276 232 -655 l144 -410 127 -3 126 -3 0 911 0 910 -125 0 -125 0 -2 -537 c-3
-517 -4 -536 -20 -493 -15 41 -55 155 -276 795 l-80 230 -136 3 -136 3 0 -911z"/>
<path d="M1280 940 l0 -910 370 0 370 0 0 125 0 125 -235 0 -235 0 0 285 0
285 170 0 170 0 0 125 0 125 -170 0 -170 0 0 250 0 250 235 0 235 0 0 125 0
125 -370 0 -370 0 0 -910z"/>
<path d="M2230 940 l0 -910 370 0 370 0 0 125 0 125 -235 0 -235 0 0 285 0
285 170 0 170 0 0 125 0 125 -170 0 -170 0 0 250 0 250 43 0 42 0 0 125 0 125
-177 0 -178 0 0 -910z"/>
<path d="M2676 1819 c-3 -17 -6 -60 -6 -94 0 -34 3 -77 6 -94 6 -29 9 -31 54
-31 l47 0 -1 98 c0 53 3 109 7 125 l7 27 -54 0 c-52 0 -54 -1 -60 -31z"/>
<path d="M2870 1785 c-11 -59 -8 -132 7 -171 3 -9 21 -14 49 -14 l44 0 0 125
0 125 -44 0 -44 0 -12 -65z"/>
<path d="M3190 1725 l0 -125 135 0 136 0 -3 123 -3 122 -132 3 -133 3 0 -126z"/>
<path d="M3190 760 l0 -730 135 0 135 0 0 730 0 730 -135 0 -135 0 0 -730z"/>
<path d="M3790 270 c-13 -8 -12 -10 3 -10 9 0 17 5 17 10 0 12 -1 12 -20 0z"/>
<path d="M3630 142 c0 -76 3 -91 20 -107 17 -15 24 -16 45 -7 24 11 25 15 25
107 0 120 -18 126 -22 8 -3 -74 -6 -88 -20 -91 -16 -3 -18 6 -18 87 0 74 -3
91 -15 91 -12 0 -15 -16 -15 -88z"/>
<path d="M3750 130 l0 -100 40 0 c22 0 40 5 40 10 0 6 -11 10 -25 10 -22 0
-25 4 -25 35 0 28 4 35 20 35 11 0 20 5 20 11 0 6 -9 13 -20 16 -14 4 -20 14
-20 34 0 24 4 29 25 29 14 0 25 5 25 10 0 6 -18 10 -40 10 l-40 0 0 -100z"/>
</g>
</svg>
